<?xml version="1.0" encoding="UTF-8"?>
<svg xmlns="http://www.w3.org/2000/svg" viewBox="0 0 1024 1024">
  <defs>
    <linearGradient id="base" x1="176" y1="120" x2="880" y2="930" gradientUnits="userSpaceOnUse">
      <stop offset="0" stop-color="#18212b"/>
      <stop offset="0.56" stop-color="#10161e"/>
      <stop offset="1" stop-color="#0a0f15"/>
    </linearGradient>
    <linearGradient id="edge" x1="184" y1="128" x2="850" y2="868" gradientUnits="userSpaceOnUse">
      <stop offset="0" stop-color="#7eddf5" stop-opacity="0.92"/>
      <stop offset="0.62" stop-color="#22b8e8" stop-opacity="0.62"/>
      <stop offset="1" stop-color="#f0b66a" stop-opacity="0.34"/>
    </linearGradient>
    <radialGradient id="glow" cx="50%" cy="40%" r="62%">
      <stop offset="0" stop-color="#22b8e8" stop-opacity="0.2"/>
      <stop offset="0.6" stop-color="#22b8e8" stop-opacity="0.06"/>
      <stop offset="1" stop-color="#22b8e8" stop-opacity="0"/>
    </radialGradient>
    <filter id="softShadow" x="-20%" y="-20%" width="140%" height="140%">
      <feDropShadow dx="0" dy="18" stdDeviation="18" flood-color="#000810" flood-opacity="0.45"/>
    </filter>
  </defs>
  <rect x="58" y="58" width="908" height="908" rx="202" fill="url(#base)"/>
  <rect x="58" y="58" width="908" height="908" rx="202" fill="url(#glow)"/>
  <rect x="80" y="80" width="864" height="864" rx="184" fill="none" stroke="url(#edge)" stroke-width="24"/>
  <path d="M185 286H839M185 512H839M185 738H839M286 185V839M512 185V839M738 185V839" stroke="#87a5b5" stroke-width="6" opacity="0.08"/>
  <g filter="url(#softShadow)" stroke-linecap="round" stroke-linejoin="round">
    
    <rect x="214" y="280" width="156" height="126" rx="28" fill="#121c26" stroke="#87a5b5" stroke-width="22"/>
    <rect x="214" y="474" width="156" height="126" rx="28" fill="#121c26" stroke="#22b8e8" stroke-width="24"/>
    <rect x="214" y="668" width="156" height="126" rx="28" fill="#121c26" stroke="#87a5b5" stroke-width="22"/>
    <path d="M390 342C484 342 486 454 574 454M390 536H560M390 730C484 730 486 618 574 618" fill="none" stroke="#87a5b5" stroke-width="24"/>
    <rect x="560" y="326" width="280" height="396" rx="42" fill="#172432" stroke="#f4fbff" stroke-width="30"/>
    <path d="M626 426H768M626 512H780M626 598H724" stroke="#87a5b5" stroke-width="24"/>
    <path d="M642 678H782" stroke="#22b8e8" stroke-width="30"/>
  
  </g>
</svg>
